<svg xmlns="http://www.w3.org/2000/svg" viewBox="0 0 256 256" role="img" aria-label="Loose icon">
  <defs>
    <linearGradient id="bg" x1="0" y1="0" x2="1" y2="1">
      <stop offset="0%" stop-color="#2a145f"/>
      <stop offset="100%" stop-color="#7c3aed"/>
    </linearGradient>
    <linearGradient id="glass" x1="0" y1="0" x2="0" y2="1">
      <stop offset="0%" stop-color="#fff" stop-opacity="0.92"/>
      <stop offset="100%" stop-color="#e9d5ff" stop-opacity="0.85"/>
    </linearGradient>
  </defs>

  <rect width="256" height="256" rx="56" fill="url(#bg)"/>

  <path d="M87 62h82c6 0 11 5 11 11v14c0 24-13 46-34 58v27c0 7 2 14 6 20l8 13c3 6-1 13-8 13h-48c-7 0-12-7-8-13l8-13c4-6 6-13 6-20v-27C89 133 76 111 76 87V73c0-6 5-11 11-11z" fill="url(#glass)"/>
  <path d="M95 83h64c0 17-9 32-24 42l-8 5-8-5c-15-10-24-25-24-42z" fill="#a855f7" opacity="0.8"/>

  <circle cx="161" cy="89" r="8" fill="#fff" opacity="0.5"/>
</svg>
